HIERARCHY
ROOT Hips
{
	OFFSET 0.00000 0.00000 0.00000
	CHANNELS 6 Xposition Yposition Zposition Zrotation Yrotation Xrotation 
	JOINT LHipJoint
	{
		OFFSET 0 0 0
		CHANNELS 3 Zrotation Yrotation Xrotation
		JOINT LeftHip
		{
			OFFSET 1.17584 -1.63585 1.00361
			CHANNELS 3 Zrotation Yrotation Xrotation
			JOINT LeftKnee
			{
				OFFSET 2.23889 -6.15131 0.00000
				CHANNELS 3 Zrotation Yrotation Xrotation
				JOINT LeftAnkle
				{
					OFFSET 2.65161 -7.28525 0.00000
					CHANNELS 3 Zrotation Yrotation Xrotation
					JOINT LeftToe
					{
						OFFSET 0.24898 -0.68407 1.57235
						CHANNELS 3 Zrotation Yrotation Xrotation
						End Site
						{
							OFFSET 0.00000 -0.00000 0.85838
						}
					}
				}
			}
		}
	}
	JOINT RHipJoint
	{
		OFFSET 0 0 0
		CHANNELS 3 Zrotation Yrotation Xrotation
		JOINT RightHip
		{
			OFFSET -1.15592 -1.63585 1.00361
			CHANNELS 3 Zrotation Yrotation Xrotation
			JOINT RightKnee
			{
				OFFSET -2.34071 -6.43104 0.00000
				CHANNELS 3 Zrotation Yrotation Xrotation
				JOINT RightAnkle
				{
					OFFSET -2.59113 -7.11908 0.00000
					CHANNELS 3 Zrotation Yrotation Xrotation
					JOINT RightToe
					{
						OFFSET -0.17867 -0.49089 1.70981
						CHANNELS 3 Zrotation Yrotation Xrotation
						End Site
						{
							OFFSET -0.00000 -0.00000 0.89861
						}
					}
				}
			}
		}
	}
	JOINT lowerback
	{
		OFFSET 0 0 0
		CHANNELS 3 Zrotation Yrotation Xrotation
		JOINT Chest
		{
			OFFSET -0.02255 1.90764 -0.16605
			CHANNELS 3 Zrotation Yrotation Xrotation
			JOINT Chest2
			{
				OFFSET -0.00365 1.92150 -0.04898
				CHANNELS 3 Zrotation Yrotation Xrotation
				JOINT lowerneck
				{
					OFFSET 0 0 0
					CHANNELS 3 Zrotation Yrotation Xrotation
					JOINT Neck
					{
						OFFSET 0.00372 1.59170 0.08694
						CHANNELS 3 Zrotation Yrotation Xrotation
						JOINT Head
						{
							OFFSET 0.12558 1.58643 -0.08078
							CHANNELS 3 Zrotation Yrotation Xrotation
							End Site
							{
								OFFSET 0.04211 1.60835 -0.03803
							}
						}
					}
				}
				JOINT LeftCollar
				{
					OFFSET 0 0 0
					CHANNELS 3 Zrotation Yrotation Xrotation
					JOINT LeftShoulder
					{
						OFFSET 3.69324 0.96316 0.19077
CHANNELS 3 Zrotation Xrotation Yrotation
						JOINT LeftElbow
						{
OFFSET 0 -4.877960 -0.000000
CHANNELS 3 Zrotation Xrotation Yrotation
							JOINT LeftWrist
							{
OFFSET 0 -3.231690 0.000000
CHANNELS 3 Zrotation Xrotation Yrotation
								JOINT lhand
								{
									OFFSET 0 0 0
CHANNELS 3 Zrotation Xrotation Yrotation
									JOINT LFingers
									{
OFFSET 0 -0.731320 0.000000
CHANNELS 3 Zrotation Xrotation Yrotation
										End Site
										{
OFFSET 0 -0.589610 0.000000
										}
									}
								}
								JOINT LThumb
								{
OFFSET 0 0.000000 0.000000
CHANNELS 3 Zrotation Xrotation Yrotation
									End Site
									{
OFFSET 0 -0.598610 0.598610
									}
								}
							}
						}
					}
				}
				JOINT RightCollar
				{
					OFFSET 0 0 0
					CHANNELS 3 Zrotation Yrotation Xrotation
					JOINT RightShoulder
					{
						OFFSET -3.66103 0.75145 0.08281
CHANNELS 3 Zrotation Xrotation Yrotation
						JOINT RightElbow
						{
OFFSET 0 -4.914300 0.000000
CHANNELS 3 Zrotation Xrotation Yrotation
							JOINT RightWrist
							{
OFFSET 0 -3.290930 0.000000
CHANNELS 3 Zrotation Xrotation Yrotation
								JOINT rhand
								{
									OFFSET 0 0 0
CHANNELS 3 Zrotation Xrotation Yrotation
									JOINT RFingers
									{
OFFSET 0 -0.545120 0.000000
CHANNELS 3 Zrotation Xrotation Yrotation
										End Site
										{
OFFSET 0 -0.439490 0.000000
										}
									}
								}
								JOINT RThumb
								{
OFFSET 0 0.000000 0.000000
CHANNELS 3 Zrotation Xrotation Yrotation
									End Site
									{
OFFSET 0 -0.446200 0.446200
									}
								}
							}
						}
					}
				}
			}
		}
	}
}
MOTION
Frames: 7
Frame Time: 0.008333333333333333
9.162300 16.029100 -0.123400 93.958600 -88.606400 -93.908900 0.000000 0.000000 0.000000 -9.402100 -1.942800 -13.136800 3.686300 11.730800 34.786300 1.841600 12.670200 -32.843200 3.219800 -11.042600 -32.423800 0.000000 0.000000 0.000000 8.028100 6.485600 -15.012300 -5.172700 -13.575600 41.563400 -1.322500 -10.582500 -27.878600 -0.273100 3.361500 -9.287000 -1.138500 0.461100 -7.489800 -1.650400 0.841400 4.221200 -0.985000 0.383000 8.683800 -0.169600 0.033700 -3.829600 3.736000 -2.238700 29.840900 1.058900 -1.114000 10.147900 0.000000 -0.000000 0.000000 5.071100 -2.422900 -35.764300 41.497000 -48.932200 19.560500 39.791100 -3.045400 31.321100 0.000000 0.000000 0.000000 -7.125000 0.000000 0.000000 4.534300 -8.290200 5.155700 0.000000 -0.000000 0.000000 0.201600 -0.594700 35.613600 -41.629100 -49.006000 -19.660100 -49.589600 13.499700 10.087500 0.000000 0.000000 0.000000 7.125000 0.000000 -0.000000 -20.924700 44.259000 -0.401100
9.158261 16.027353 -0.123425 93.466120 -88.393741 -93.431693 0.000000 0.000000 0.000000 -9.639131 -1.818767 -13.094991 3.669942 11.707717 34.705647 1.846289 12.609526 -32.824194 3.218609 -11.040783 -32.417534 0.000000 0.000000 0.000000 7.752536 6.364201 -15.055485 -5.190939 -13.595647 41.641181 -1.358567 -10.202236 -27.836527 -0.226702 3.063844 -8.456563 -1.239486 0.502080 -7.508386 -1.766935 0.915344 4.147622 -1.040350 0.417024 8.616476 -0.180919 -0.053114 -3.410288 3.807893 -2.380765 29.703689 1.073615 -1.184221 10.020982 0.000000 0.000000 0.000000 5.047898 -2.510707 -35.802465 41.205949 -48.768333 19.341346 39.515393 -2.932624 31.460690 0.000000 0.000000 0.000000 -7.125000 0.000000 0.000000 4.348102 -8.340416 4.946080 0.000000 0.000000 0.000000 0.308862 -0.831197 32.892766 -41.950208 -49.183779 -19.902849 -45.346397 31.773877 20.882156 0.000000 0.000000 0.000000 7.125000 0.000000 0.000000 -19.278093 57.416704 6.012268
9.159600 16.025828 -0.124239 93.489185 -88.440361 -93.463742 0.000000 0.000000 0.000000 -9.581617 -1.828671 -13.059721 3.666456 11.702833 34.688739 1.850828 12.586438 -32.833306 3.201945 -11.015002 -32.330477 0.000000 0.000000 0.000000 7.819428 6.409805 -15.050749 -5.197028 -13.602328 41.667112 -1.341483 -10.358702 -27.837021 -0.265173 3.312600 -9.150316 -1.284989 0.435488 -7.496145 -1.632403 0.821599 4.120738 -0.885930 0.365316 8.575965 -0.282005 0.043497 -3.371861 3.639441 -2.187023 29.749934 1.050122 -1.124204 10.023805 0.000000 0.000000 0.000000 4.803942 -2.568240 -35.645548 41.016731 -48.660842 19.199140 39.513327 -2.939579 31.471224 0.000000 0.000000 0.000000 -7.125000 0.000000 0.000000 4.344238 -8.351296 4.942360 0.000000 0.000000 0.000000 0.057616 -0.776593 33.213373 -41.952138 -49.184852 -19.904326 -45.647446 31.084314 20.489427 0.000000 0.000000 0.000000 7.125000 0.000000 0.000000 -19.568443 57.013324 5.912587
9.159942 16.024992 -0.124400 93.737805 -88.458203 -93.727330 0.000000 0.000000 0.000000 -9.558914 -1.820317 -13.044742 3.667850 11.704867 34.695634 1.847933 12.594861 -32.822848 3.237638 -11.070157 -32.516831 0.000000 0.000000 0.000000 7.845545 6.425562 -15.032265 -5.197917 -13.603317 41.670958 -1.335391 -10.398720 -27.825134 -0.280609 3.406930 -9.413689 -1.257046 0.428833 -7.505001 -1.582914 0.806641 4.107092 -0.851208 0.358408 8.565668 -0.347776 0.088345 -3.335748 3.583103 -2.102494 29.786231 1.049816 -1.099289 10.027695 0.000000 0.000000 0.000000 4.690361 -2.689543 -35.629414 40.779334 -48.524941 19.021113 39.543064 -2.984822 31.493202 0.000000 0.000000 0.000000 -7.125000 0.000000 0.000000 4.354703 -8.386696 4.956620 0.000000 0.000000 0.000000 -0.040763 -0.745441 33.135538 -42.001193 -49.211784 -19.941426 -45.353588 31.688461 20.962466 0.000000 0.000000 0.000000 7.125000 0.000000 0.000000 -19.306239 57.517826 6.068932
9.161022 16.024978 -0.124478 94.363232 -88.485514 -94.357043 0.000000 0.000000 0.000000 -9.526075 -1.823290 -13.049624 3.668867 11.706222 34.700378 1.841799 12.620147 -32.806077 3.283171 -11.139906 -32.753254 0.000000 0.000000 0.000000 7.885748 6.473717 -15.020066 -5.198178 -13.603578 41.672145 -1.332011 -10.436226 -27.830645 -0.287445 3.448057 -9.528839 -1.224376 0.421632 -7.513934 -1.554442 0.791709 4.115279 -0.841599 0.352177 8.579613 -0.322260 0.128548 -3.441616 3.502656 -2.032626 29.878090 1.023395 -1.070886 10.079396 0.000000 0.000000 0.000000 4.635340 -2.798532 -35.580436 40.615030 -48.430069 18.898100 39.617530 -3.051407 31.523427 0.000000 0.000000 0.000000 -7.125000 0.000000 0.000000 4.387248 -8.448108 4.997871 0.000000 0.000000 0.000000 -0.091826 -0.757392 33.207299 -42.003121 -49.212888 -19.942921 -45.188857 31.232306 20.688984 0.000000 0.000000 0.000000 7.125000 0.000000 0.000000 -19.030342 57.134058 5.799952
9.162914 16.025442 -0.124942 94.774236 -88.498876 -94.756864 0.000000 0.000000 0.000000 -9.508574 -1.844662 -13.069195 3.669106 11.706558 34.701628 1.842276 12.626346 -32.813650 3.284627 -11.142126 -32.760556 0.000000 0.000000 0.000000 7.910091 6.535269 -15.026883 -5.199514 -13.605061 41.677851 -1.332167 -10.460536 -27.850707 -0.283963 3.427130 -9.470353 -1.259590 0.385244 -7.505212 -1.528756 0.744781 4.125004 -0.801653 0.326452 8.583880 -0.206530 0.162036 -3.615353 3.352025 -1.966169 29.989562 0.955717 -1.040567 10.150716 0.000000 0.000000 0.000000 4.599164 -2.837667 -35.436266 40.567954 -48.402784 18.862851 39.661560 -3.102566 31.575844 0.000000 0.000000 0.000000 -7.125000 0.000000 0.000000 4.397432 -8.522526 5.014335 0.000000 0.000000 0.000000 -0.134076 -0.810793 33.357614 -41.969696 -49.194513 -19.917615 -44.985169 30.611255 20.266549 0.000000 0.000000 0.000000 7.125000 0.000000 0.000000 -18.676757 56.555262 5.422747
9.164934 16.025817 -0.125417 94.343994 -88.497932 -94.312944 0.000000 0.000000 0.000000 -9.508769 -1.873453 -13.086201 3.668517 11.705700 34.698649 1.847834 12.604429 -32.829501 3.250343 -11.089607 -32.582799 0.000000 0.000000 0.000000 7.912515 6.565998 -15.043034 -5.201767 -13.607484 41.687301 -1.336501 -10.455494 -27.877203 -0.274164 3.367935 -9.304843 -1.374138 0.307469 -7.488280 -1.471355 0.648565 4.133151 -0.690795 0.271073 8.580266 -0.116114 0.205975 -3.782954 3.166059 -1.870150 30.086780 0.882709 -1.003294 10.214908 0.000000 0.000000 0.000000 4.505547 -2.833384 -35.201229 40.590819 -48.416068 18.879935 39.652161 -3.122586 31.621754 0.000000 0.000000 0.000000 -7.125000 0.000000 0.000000 4.380296 -8.569636 4.997729 0.000000 0.000000 0.000000 -0.236322 -0.873023 33.587254 -41.927947 -49.171565 -19.885947 -44.820879 30.093925 19.901075 0.000000 0.000000 0.000000 7.125000 0.000000 0.000000 -18.391665 56.057660 5.111314
